<?xml version="1.0" encoding="utf-8"?>
<!-- Generator: Adobe Illustrator 27.7.0, SVG Export Plug-In . SVG Version: 6.00 Build 0)  -->
<svg version="1.1" id="Camada_1" xmlns="http://www.w3.org/2000/svg" xmlns:xlink="http://www.w3.org/1999/xlink" x="0px" y="0px"
	 viewBox="0 0 423.6 433.7" style="enable-background:new 0 0 423.6 433.7;" xml:space="preserve">
<g>
	<path d="M154.2,245.8c-5.6-10.4-9.8-20.6-13.1-31.3c-0.4-1.3-1.5-1.9-2.5-2.7c-6.3-5.1-12.6-10.2-19-15.2
		c-7.7-6-11.5-13.5-9.3-23.2c2.2-9.6,8.5-15.3,18.1-17.2c0.4-0.1,0.7-0.3,1.4-0.6c-1.8-3.7-3.6-7.3-5.4-10.9
		c-3.1-6.2-6.3-12.5-9.4-18.7c-3.7-7.4-4.2-15-1.6-22.9c3.4-9.9-0.6-17.8-10.6-21.3c-4.1-1.4-8.3-2.7-12.4-4.1
		c-2.6-0.8-4.4-2.4-4.7-5.2s1-4.7,3.4-6.2c25.3-15.7,52.8-25.5,82.3-29c26.5-3.1,53.2-2.2,79.8-1.2c40,1.5,67.4,42.1,55.2,80.3
		c-3.9,12.2-8.6,24.2-13,36.3c-0.9,2.3-0.7,3.1,1.9,3.6c9.2,1.7,15.3,7.2,17.6,16.3c2.4,9.3-0.6,17-7.9,23
		c-6.8,5.6-13.6,11-20.5,16.4c-1,0.8-2,1.4-2.4,2.8c-3.2,10.5-7.5,20.6-12.8,30.8c1.6,0.1,2.9,0.2,4.2,0.2c14.9,0,29.7,0,44.6,0
		c18.7,0,31.5,12.8,31.5,31.6c0,6.6,0.1,13.2,0,19.9c0,1.9,0.6,2.8,2.3,3.7c24.7,11.9,39.6,31.3,44.6,58.2c1.6,8.4,1,16.9,1.1,25.4
		c0,5.5,0.1,11,0,16.5c-0.1,4.4-2.3,6.6-6.8,6.7c-0.9,0-1.8,0-2.6,0c-117.7,0-235.4,0-353.2,0c-8,0-9.5-1.5-9.4-9.3
		c0.2-12-0.9-24,0.7-36c3.8-27.8,18.4-48,43.3-60.7c3-1.5,4.1-3,4.1-6.4c-0.1-8.2-0.9-16.5,0.5-24.7c2.5-14.6,14.6-24.8,29.4-24.9
		C120.3,245.7,136.9,245.8,154.2,245.8z M211.7,395.8c40.7,0,81.5,0,122.2,0.1c3.1,0,3.9-0.7,3.9-3.9c-0.1-38.2-0.1-76.5-0.1-114.7
		c0-12.2-7.4-19.5-19.7-19.5c-70.8,0-141.7,0-212.5,0c-12.4,0-19.8,7.3-19.8,19.8c0,38,0,76-0.1,114c0,3.3,0.7,4.3,4.2,4.3
		C130.4,395.7,171.1,395.8,211.7,395.8z M289.6,127.9c1.6-4.6,3.4-9.1,4.9-13.7c11.1-32.9-12.7-66.3-47.5-66.5
		c-17.4-0.1-34.8-0.1-52.1,0c-25.3,0.2-49.6,5.2-72.9,15c-5.1,2.1-10.2,4.3-15.1,7.3c0.5,0.4,0.7,0.7,0.9,0.8
		c13.4,4,23.4,20,16.8,36.7c-1.6,4.2-1.2,8.3,0.8,12.3c2.8,5.7,5.8,11.3,8.5,17.1c1,2.2,1.8,2.2,3.8,0.9c12.6-8.6,25.3-16.9,38-25.4
		c10.1-6.8,21.2-10.6,33.4-10.7c12.8-0.1,24-4.2,33.8-12.3c4.1-3.4,8.3-6.8,12.6-10.1c3.4-2.6,7-2.4,9.1,1
		C274.3,95.5,286.6,109.2,289.6,127.9z M211.8,245.8c13.4,0,26.7-0.1,40.1,0.1c2.6,0,4-0.9,5.2-3.1c11.4-20.5,18.3-42.3,20-65.7
		c0.7-9.6,0.7-9.5-8.8-9.3c-2.2,0.1-2.7,0.7-2.7,2.8c0.1,5.2,0.1,10.5,0,15.7c-0.3,9.6-7.9,17.2-17.5,17.5c-4.1,0.1-8.2,0.1-12.4,0
		c-10.2-0.2-17.9-7.9-18-18.2c-0.1-5.8-0.1-5.8-5.9-5.8c-0.1,0-0.2,0-0.4,0c-5.6,0-5.6,0-5.7,5.7c-0.2,10.5-7.8,18.1-18.3,18.3
		c-4.1,0.1-8.2,0.1-12.4,0c-9.4-0.3-17-7.9-17.3-17.3c-0.1-3.5,0-7,0-10.5c0-8.2,0-8-8.1-8.2c-3.2-0.1-3.9,0.8-3.8,3.9
		c1.4,25.4,8.1,49.1,20.6,71.3c1.2,2.1,2.5,2.9,5,2.9C184.8,245.7,198.3,245.8,211.8,245.8z M173.9,155.8c8.4,0,16.7,0,25.1,0
		c4,0,6.2,2.1,6.7,5.6c0.3,2.1-1,4.9,0.7,6c1.7,1,4.4,0.3,6.6,0.4c0.1,0,0.2,0,0.4,0c3.7,0.7,4.6-0.8,4.4-4.4
		c-0.3-5.6,2-7.6,7.7-7.6c4.4,0,8.8,0,13.1,0c12,0,24,0,36,0c1.3,0,3.2,0.7,3.1-1.9c-0.3-9.1,0.6-18.2-1.2-27.3
		c-2.1-10.6-8.2-19.2-14-27.9c-4.1-6.2-4.3-6.3-9.8-1.6c-12.8,11-27.5,16.7-44.5,16.8c-9.5,0-18.1,3.4-25.9,8.7
		c-10.7,7.2-21.3,14.5-32.2,21.3c-3.6,2.3-4.7,4.8-4.5,8.8c0.1,2.4,0.7,3.2,3.1,3.1C157.1,155.7,165.5,155.8,173.9,155.8z
		 M73.7,313.2c-1,0.4-1.4,0.6-1.8,0.8C55.6,323.2,45,336.9,40,354.8c-3.6,12.9-1.9,26.1-2.3,39.1c-0.1,1.9,1.1,1.8,2.4,1.8
		c10.4,0,20.7,0,31.1,0c2,0,2.5-0.7,2.5-2.6C73.7,366.8,73.7,340.3,73.7,313.2z M350.1,313.4c-0.2,0.5-0.4,0.7-0.4,0.9
		c0,26.4,0,52.7-0.1,79.1c0,2.1,0.9,2.4,2.7,2.4c10.2-0.1,20.5-0.1,30.7,0c2.2,0,2.7-0.8,2.7-2.8c-0.1-7.4,0.1-14.8-0.1-22.1
		c-0.4-16.9-6.3-31.7-17.8-44.1C362.8,321.2,356.9,316.7,350.1,313.4z M181.7,167.8c-3.1,0-6.2,0.1-9.4,0c-1.8-0.1-2.7,0.2-2.7,2.4
		c0.1,5.1,0,10.2,0.1,15.3c0.1,3.9,2.4,6.2,6.4,6.3c3.7,0.1,7.5,0.1,11.2,0c4-0.1,6.2-2.4,6.3-6.3c0.1-5.1,0-10.2,0.1-15.3
		c0-1.8-0.5-2.4-2.3-2.4C188.1,167.9,184.9,167.8,181.7,167.8z M242,168.1c-4,0-9.3-1.6-11.5,0.4c-2.6,2.3-0.7,7.7-0.8,11.8
		c-0.1,10.9,0.6,11.5,11.6,11.5c11.9,0,12.3-0.4,12.3-12.4c0-3.7,1.3-8.7-0.6-10.8C250.9,166.1,245.8,168.1,242,168.1z M136.2,194.6
		c-1.2-9.2-2.2-17.3-2.5-25.5c-0.1-1.8-1.5-1.4-2.5-1.3c-4.1,0.3-7.1,2.4-8.7,6.1c-1.7,3.8-1.3,7.6,1.6,10.4
		C127.6,187.9,131.6,190.8,136.2,194.6z M287.1,194.6c4.5-3.6,8.2-6.4,11.5-9.5c3.1-2.9,3.9-6.6,2.4-10.6c-1.5-4-4.5-6.2-8.7-6.6
		c-1.1-0.1-2.6-0.6-2.7,1.5C289.3,177.4,288.4,185.5,287.1,194.6z"/>
	<path d="M235.7,354c-0.1,13.2-11,24-24.3,23.8c-13.2-0.1-23.9-11.1-23.7-24.4c0.1-13,10.9-23.6,24.1-23.6
		C225,329.8,235.8,340.7,235.7,354z M211.6,365.8c6.5,0,11.9-5.3,12-11.8c0.1-6.7-5.4-12.2-12.1-12.1c-6.5,0-11.9,5.5-11.8,12
		C199.8,360.4,205.1,365.7,211.6,365.8z"/>
	<path d="M172.2,265.2c1,1.4,1.9,2.8,3,4c4.8,4.9,4.8,4.9,0,9.7c-4.2,4.2-8.4,8.6-12.8,12.7c-2,1.9-1.8,2.9,0.1,4.7
		c5.2,5,10.2,10.3,15.4,15.3c1.6,1.6,1.7,2.5,0.1,4.1c-6.4,6.5-6.4,6.6-12.9,0.1c-5.5-5.5-10.9-10.9-16.4-16.4
		c-4.1-4.1-4.1-6.9-0.2-10.8c6.9-6.9,13.8-13.8,20.6-20.6C169.9,267.1,170.7,266.5,172.2,265.2z"/>
	<path d="M277.7,293.7c0,1.9-0.8,3.4-2.1,4.7c-7.3,7.3-14.6,14.6-21.9,22c-1.2,1.2-1.9,1.4-3.3,0.1c-7.3-6.5-7.4-6.5-0.5-13.4
		c3.5-3.5,6.9-7.2,10.6-10.5c2.2-2,2.5-3.3,0.1-5.5c-5.2-4.8-10-10.1-15.2-15c-1.7-1.6-1.6-2.5,0-4.1c6.4-6.5,6.4-6.6,12.8-0.1
		c5.6,5.6,11.1,11.1,16.7,16.7C276.4,290,277.6,291.5,277.7,293.7z"/>
	<path d="M197.9,320.9c-2.8-2.1-5.7-4.3-8.4-6.6c-0.6-0.5,0.4-1.3,0.8-1.9c11.1-14.8,22.2-29.5,33.3-44.4c1.1-1.4,1.8-1.5,3.3-0.5
		c8.1,5.5,8.1,5.4,2.2,13.2c-9.5,12.6-18.9,25.2-28.4,37.8C200,319.4,199.5,320.7,197.9,320.9z"/>
</g>
</svg>
