<?xml version="1.0" encoding="utf-8"?>
<!-- Generator: Adobe Illustrator 27.7.0, SVG Export Plug-In . SVG Version: 6.00 Build 0)  -->
<svg version="1.1" id="Camada_1" xmlns="http://www.w3.org/2000/svg" xmlns:xlink="http://www.w3.org/1999/xlink" x="0px" y="0px"
	 viewBox="0 0 423.59 433.68" style="enable-background:new 0 0 423.59 433.68;" xml:space="preserve">
<style type="text/css">
	.st0{fill:#5EEAD4;}
</style>
<g>
	<path class="st0" d="M154.21,245.78c-5.55-10.43-9.84-20.63-13.06-31.27c-0.4-1.3-1.53-1.92-2.5-2.69
		c-6.34-5.08-12.63-10.21-19.03-15.21c-7.65-5.97-11.47-13.51-9.29-23.24c2.16-9.64,8.46-15.26,18.09-17.21
		c0.36-0.07,0.69-0.27,1.43-0.57c-1.81-3.68-3.58-7.31-5.39-10.92c-3.12-6.25-6.26-12.5-9.41-18.73
		c-3.74-7.41-4.21-14.99-1.55-22.87c3.36-9.94-0.61-17.84-10.57-21.26c-4.13-1.42-8.29-2.74-12.44-4.08
		c-2.58-0.84-4.4-2.43-4.73-5.22c-0.33-2.79,1.02-4.71,3.37-6.16c25.33-15.67,52.76-25.5,82.32-28.97
		c26.52-3.11,53.22-2.23,79.77-1.25c40,1.49,67.4,42.08,55.16,80.28c-3.92,12.23-8.58,24.22-13.04,36.27
		c-0.85,2.3-0.69,3.11,1.94,3.6c9.2,1.72,15.29,7.22,17.63,16.29c2.39,9.27-0.62,17.01-7.93,23.03
		c-6.75,5.56-13.63,10.96-20.46,16.43c-0.96,0.77-1.97,1.45-2.38,2.78c-3.2,10.52-7.45,20.61-12.82,30.79
		c1.64,0.08,2.93,0.18,4.21,0.19c14.87,0.01,29.74-0.01,44.61,0.01c18.74,0.03,31.48,12.8,31.54,31.57
		c0.02,6.62,0.07,13.25-0.04,19.87c-0.03,1.88,0.57,2.83,2.31,3.67c24.7,11.86,39.56,31.33,44.64,58.23
		c1.59,8.41,1.03,16.94,1.08,25.42c0.03,5.5,0.07,11-0.02,16.5c-0.07,4.42-2.32,6.58-6.76,6.73c-0.87,0.03-1.75,0.01-2.62,0.01
		c-117.72,0-235.44,0-353.17,0c-7.95,0-9.53-1.46-9.4-9.32c0.2-11.98-0.93-24.02,0.68-35.95c3.76-27.8,18.37-48.05,43.33-60.71
		c3-1.52,4.09-3.02,4.07-6.4c-0.06-8.23-0.95-16.53,0.46-24.69c2.51-14.63,14.58-24.78,29.43-24.88
		C120.31,245.69,136.92,245.78,154.21,245.78z M211.66,395.78c40.73,0,81.46-0.04,122.2,0.07c3.08,0.01,3.93-0.71,3.92-3.86
		c-0.12-38.23-0.07-76.47-0.08-114.7c-0.01-12.16-7.43-19.51-19.69-19.51c-70.84-0.01-141.69-0.01-212.53,0
		c-12.45,0-19.76,7.33-19.77,19.81c-0.01,37.98,0.04,75.97-0.08,113.95c-0.01,3.32,0.7,4.34,4.22,4.33
		C130.44,395.73,171.05,395.78,211.66,395.78z M289.6,127.94c1.65-4.56,3.38-9.1,4.94-13.69c11.1-32.88-12.71-66.26-47.46-66.46
		c-17.37-0.1-34.75-0.1-52.12,0c-25.28,0.15-49.58,5.2-72.89,14.99c-5.09,2.14-10.18,4.3-15.06,7.3c0.5,0.45,0.65,0.7,0.86,0.76
		c13.41,3.97,23.39,20.05,16.83,36.74c-1.63,4.15-1.19,8.35,0.79,12.35c2.82,5.71,5.78,11.35,8.47,17.11
		c1.04,2.23,1.84,2.2,3.77,0.9c12.61-8.55,25.33-16.94,38-25.41c10.12-6.77,21.21-10.59,33.4-10.69
		c12.76-0.11,23.97-4.15,33.77-12.28c4.13-3.43,8.32-6.8,12.57-10.09c3.39-2.62,6.96-2.41,9.14,0.98
		C274.28,95.49,286.65,109.16,289.6,127.94z M211.81,245.78c13.37,0,26.74-0.08,40.11,0.07c2.64,0.03,3.99-0.9,5.22-3.11
		c11.42-20.47,18.26-42.31,19.95-65.73c0.69-9.59,0.7-9.51-8.76-9.29c-2.19,0.05-2.73,0.74-2.68,2.8c0.12,5.25,0.15,10.5,0,15.74
		c-0.27,9.64-7.89,17.21-17.54,17.48c-4.12,0.12-8.25,0.09-12.37,0.01c-10.25-0.19-17.85-7.87-18.04-18.16
		c-0.11-5.82-0.11-5.82-5.94-5.82c-0.12,0-0.25,0-0.37,0c-5.6,0-5.6,0-5.7,5.69c-0.18,10.52-7.77,18.15-18.28,18.3
		c-4.12,0.06-8.25,0.12-12.37-0.03c-9.45-0.33-16.98-7.9-17.31-17.34c-0.12-3.49-0.03-7-0.04-10.5c0-8.16,0-8-8.13-8.2
		c-3.17-0.08-3.95,0.83-3.78,3.95c1.4,25.36,8.05,49.15,20.58,71.29c1.21,2.14,2.49,2.92,4.96,2.9
		C184.82,245.71,198.31,245.78,211.81,245.78z M173.85,155.78c8.37,0,16.74-0.04,25.12,0.02c3.96,0.03,6.23,2.08,6.7,5.63
		c0.27,2.05-1.01,4.93,0.71,5.97c1.67,1.01,4.35,0.32,6.59,0.38c0.12,0,0.25-0.02,0.37,0c3.67,0.72,4.62-0.82,4.44-4.41
		c-0.29-5.55,2-7.56,7.68-7.59c4.37-0.02,8.75,0,13.12,0c12,0,23.99,0.02,35.99-0.02c1.31,0,3.21,0.74,3.12-1.87
		c-0.28-9.09,0.61-18.21-1.21-27.27c-2.14-10.62-8.18-19.18-14.02-27.89c-4.15-6.19-4.26-6.34-9.82-1.56
		c-12.84,11.02-27.5,16.72-44.54,16.75c-9.46,0.01-18.05,3.43-25.9,8.73c-10.66,7.19-21.26,14.5-32.16,21.31
		c-3.64,2.27-4.67,4.81-4.46,8.76c0.13,2.4,0.67,3.18,3.15,3.13C157.11,155.69,165.48,155.78,173.85,155.78z M73.69,313.23
		c-0.98,0.44-1.43,0.6-1.85,0.83c-16.26,9.17-26.86,22.79-31.89,40.74c-3.61,12.87-1.86,26.07-2.28,39.14
		c-0.06,1.94,1.14,1.84,2.44,1.84c10.37-0.01,20.74-0.05,31.11,0.04c2.02,0.02,2.51-0.67,2.5-2.58
		C73.68,366.76,73.69,340.27,73.69,313.23z M350.11,313.35c-0.22,0.52-0.38,0.73-0.38,0.94c-0.02,26.37-0.01,52.74-0.08,79.1
		c-0.01,2.13,0.88,2.42,2.67,2.41c10.25-0.06,20.5-0.09,30.74,0.02c2.22,0.02,2.7-0.76,2.67-2.8c-0.11-7.37,0.08-14.75-0.08-22.12
		c-0.36-16.93-6.32-31.69-17.77-44.14C362.8,321.25,356.94,316.68,350.11,313.35z M181.67,167.78c-3.12,0-6.23,0.07-9.35-0.03
		c-1.78-0.06-2.74,0.25-2.68,2.39c0.14,5.11-0.04,10.22,0.08,15.33c0.09,3.95,2.38,6.17,6.38,6.28c3.74,0.11,7.48,0.11,11.21,0
		c3.96-0.12,6.25-2.37,6.34-6.32c0.12-5.11-0.03-10.22,0.07-15.33c0.03-1.78-0.54-2.41-2.34-2.35
		C188.15,167.86,184.91,167.78,181.67,167.78z M242.01,168.07c-3.96,0-9.31-1.56-11.52,0.41c-2.56,2.28-0.72,7.73-0.76,11.79
		c-0.11,10.89,0.59,11.51,11.64,11.51c11.95,0,12.34-0.37,12.31-12.37c-0.01-3.72,1.27-8.67-0.61-10.83
		C250.9,166.1,245.81,168.14,242.01,168.07z M136.23,194.62c-1.24-9.19-2.22-17.32-2.48-25.5c-0.06-1.82-1.49-1.37-2.49-1.29
		c-4.08,0.34-7.05,2.41-8.7,6.13c-1.66,3.76-1.27,7.6,1.59,10.45C127.62,187.89,131.65,190.81,136.23,194.62z M287.11,194.6
		c4.46-3.63,8.18-6.35,11.52-9.47c3.08-2.88,3.88-6.62,2.35-10.65c-1.52-3.98-4.52-6.16-8.72-6.63c-1.14-0.13-2.6-0.56-2.67,1.51
		C289.33,177.45,288.43,185.49,287.11,194.6z"/>
	<path class="st0" d="M235.68,353.96c-0.07,13.22-11.02,23.96-24.27,23.81c-13.24-0.15-23.85-11.06-23.71-24.37
		c0.14-13.04,10.95-23.64,24.08-23.61C225.02,329.81,235.75,340.67,235.68,353.96z M211.64,365.75c6.54,0.03,11.95-5.3,12.03-11.84
		c0.07-6.69-5.42-12.18-12.13-12.12c-6.53,0.05-11.88,5.49-11.83,12.03C199.75,360.38,205.1,365.73,211.64,365.75z"/>
	<path class="st0" d="M172.17,265.16c1.03,1.4,1.86,2.84,2.98,3.99c4.78,4.89,4.81,4.86,0.02,9.66c-4.24,4.23-8.37,8.58-12.75,12.66
		c-1.99,1.85-1.75,2.93,0.09,4.69c5.23,5,10.21,10.26,15.43,15.27c1.64,1.58,1.7,2.47,0.05,4.15c-6.42,6.54-6.36,6.6-12.85,0.12
		c-5.47-5.47-10.95-10.93-16.41-16.42c-4.06-4.09-4.11-6.87-0.16-10.84c6.86-6.91,13.76-13.78,20.65-20.65
		C169.9,267.1,170.67,266.49,172.17,265.16z"/>
	<path class="st0" d="M277.67,293.68c0.03,1.87-0.79,3.38-2.06,4.66c-7.31,7.34-14.65,14.64-21.94,22c-1.18,1.19-1.91,1.4-3.32,0.14
		c-7.3-6.55-7.35-6.5-0.49-13.36c3.53-3.53,6.93-7.2,10.63-10.54c2.25-2.03,2.52-3.28,0.13-5.5c-5.21-4.83-10.04-10.07-15.18-14.99
		c-1.67-1.6-1.63-2.5-0.01-4.14c6.42-6.52,6.36-6.58,12.84-0.09c5.56,5.56,11.11,11.12,16.68,16.67
		C276.41,289.97,277.61,291.51,277.67,293.68z"/>
	<path class="st0" d="M197.86,320.93c-2.76-2.14-5.67-4.29-8.42-6.62c-0.58-0.49,0.36-1.33,0.79-1.9
		c11.09-14.79,22.21-29.55,33.27-44.37c1.06-1.42,1.78-1.54,3.28-0.53c8.11,5.45,8.12,5.38,2.25,13.17
		c-9.47,12.57-18.89,25.18-28.36,37.75C199.96,319.36,199.54,320.68,197.86,320.93z"/>
</g>
</svg>
