<?xml version="1.0" encoding="utf-8"?>
<!-- Generator: Adobe Illustrator 26.0.3, SVG Export Plug-In . SVG Version: 6.00 Build 0)  -->
<svg version="1.1" id="Camada_1" xmlns="http://www.w3.org/2000/svg" xmlns:xlink="http://www.w3.org/1999/xlink" x="0px" y="0px"
	 viewBox="0 0 540.4 232.1" style="enable-background:new 0 0 540.4 232.1;" xml:space="preserve">
<style type="text/css">
	.st0{fill:#FFFFFF;}
</style>
<polygon class="st0" points="34.1,115.1 9.8,83.7 2.7,83.7 2.7,125.7 9.8,125.7 9.8,95.1 33.5,125.7 41.2,125.7 41.2,83.7 
	34.1,83.7 "/>
<polygon class="st0" points="83,119 59.9,119 59.9,107.8 80,107.8 80,101.5 59.9,101.5 59.9,90.4 82.3,90.4 82.3,83.7 52.9,83.7 
	52.9,125.7 83,125.7 "/>
<path class="st0" d="M122.1,121.2c3.3-3.3,5-7.9,5-13.9V83.7H120V107c0,3.8-1,6.9-2.9,9.1c-4.1,4.3-10.9,4.5-15.2,0.4
	c-0.1-0.1-0.3-0.3-0.4-0.4c-1.9-2.2-2.9-5.3-2.9-9.1V83.7h-7.1v23.5c0,6,1.7,10.7,5,13.9c3.4,3.3,8,5.1,12.8,4.9
	C114.1,126.3,118.7,124.5,122.1,121.2z"/>
<path class="st0" d="M164.6,125.7h9l-11-15.2c6-1.8,9.1-6.2,9.1-13.1c0-4.8-1.4-8.2-4.1-10.4c-2.8-2.2-7.3-3.2-13.7-3.2h-15.6v41.9
	h7.1v-14.1h9.3L164.6,125.7z M145.3,105.2v-15h9c3.8,0,6.4,0.5,7.9,1.5c1.5,1,2.2,2.9,2.2,5.6c0,2.7-0.7,4.7-2.2,6
	c-1.4,1.3-4.2,1.9-8.2,1.9L145.3,105.2z"/>
<path class="st0" d="M201.2,126.1c5.9,0.2,11.6-2.1,15.8-6.2c4.2-4,6.5-9.7,6.4-15.5c0.1-5.8-2.2-11.4-6.4-15.5
	c-8.8-8.3-22.6-8.3-31.4,0c-4.2,4-6.5,9.7-6.4,15.5c-0.1,5.8,2.2,11.4,6.4,15.5C189.7,124,195.4,126.2,201.2,126.1z M190.7,93.6
	c5.7-5.8,15-5.9,20.8-0.3c0.1,0.1,0.2,0.2,0.3,0.3c5.7,6,5.7,15.5,0,21.5c-5.7,5.8-15,5.9-20.8,0.3c-0.1-0.1-0.2-0.2-0.3-0.3
	C185,109.1,185,99.7,190.7,93.6z"/>
<path class="st0" d="M22.4,154.1c2.1,0,4.3,0.3,6.3,1.1c2.1,1,4,2.3,5.7,4l4.5-4.9c-4.1-4.7-10.1-7.3-16.3-7.2
	c-6-0.2-11.8,2.1-16.1,6.2c-8.5,8.6-8.5,22.4-0.1,31.1c4.2,4.1,9.9,6.3,15.8,6.1c6.2,0.1,12.1-2.6,16.2-7.4l-4.6-4.7
	c-1.6,1.6-3.5,2.9-5.5,3.9c-2,0.9-4.1,1.3-6.3,1.2c-3.8,0-7.5-1.5-10.2-4.3c-2.8-2.8-4.4-6.7-4.3-10.7c-0.1-4,1.4-7.8,4.3-10.5
	C14.6,155.4,18.4,153.9,22.4,154.1z"/>
<rect x="46.9" y="148.1" class="st0" width="7.1" height="41.9"/>
<polygon class="st0" points="69.9,144.6 75.7,144.6 80.3,141.3 85,144.6 90.8,144.6 83.5,136.6 77.2,136.6 "/>
<polygon class="st0" points="72.7,172.2 92.8,172.2 92.8,165.9 72.7,165.9 72.7,154.8 95,154.8 95,148.1 65.6,148.1 65.6,190.1 
	95.8,190.1 95.8,183.4 72.7,183.4 "/>
<polygon class="st0" points="136.3,179.4 111.9,148.1 104.8,148.1 104.8,190.1 111.9,190.1 111.9,159.4 135.7,190.1 143.3,190.1 
	143.3,148.1 136.3,148.1 "/>
<path class="st0" d="M174.7,154.1c2.1,0,4.3,0.3,6.3,1.1c2.1,1,4,2.3,5.7,4l4.5-4.9c-4.1-4.7-10.1-7.3-16.3-7.2
	c-6-0.2-11.8,2.1-16.1,6.2c-8.5,8.6-8.5,22.4-0.1,31.1c4.2,4.1,9.9,6.3,15.8,6.1c6.2,0.1,12.1-2.6,16.2-7.4l-4.6-4.7
	c-1.6,1.6-3.5,2.9-5.5,3.9c-2,0.9-4.1,1.3-6.3,1.2c-3.8,0-7.5-1.5-10.1-4.3c-2.8-2.8-4.4-6.7-4.3-10.7c-0.1-4,1.4-7.8,4.3-10.5
	C166.9,155.4,170.7,154,174.7,154.1z"/>
<rect x="199.1" y="148.1" class="st0" width="7.1" height="41.9"/>
<path class="st0" d="M230.5,148.1L212,190.1h7.6l4.2-9.5h21l4.2,9.5h7.6L238,148.1H230.5z M226.7,174l7.6-17.3l7.6,17.3H226.7z"/>
<path class="st0" d="M288.1,169.9c-2.2-1.9-5.4-3.3-9.7-4.4c-4.3-1-7.1-2-8.4-2.9c-1.3-0.9-2.1-2.3-2-3.9c-0.1-1.5,0.7-3,2-3.8
	c1.5-0.9,3.3-1.3,5.1-1.3c2.1,0,4.3,0.4,6.3,1.1c1.8,0.6,3.5,1.5,5,2.8l3.8-5.3c-2-1.7-4.3-2.9-6.8-3.7c-2.6-0.9-5.3-1.3-8-1.3
	c-3.7-0.1-7.4,1-10.5,3.1c-2.8,2.1-4.4,5.5-4.2,9c0,3.9,1.2,6.8,3.7,8.6c1.3,1,2.7,1.8,4.3,2.4c2.3,0.8,4.6,1.5,7,2
	c2.3,0.4,4.5,1.3,6.5,2.5c1.2,0.9,1.9,2.3,1.9,3.8c0,1.6-0.7,3-2,3.9c-1.6,1.1-3.5,1.6-5.4,1.5c-4.6,0-9-1.8-13.2-5.5l-4.3,5.4
	c4.7,4.4,11,6.8,17.5,6.8c4.5,0,8.1-1.1,10.9-3.4c2.7-2.2,4.2-5.5,4.1-8.9C291.4,174.5,290.3,171.8,288.1,169.9z"/>
<path class="st0" d="M540.4,118L540.4,118l-3.8-45.9c0,0,0-0.1,0-0.2l0,0c0-0.1-0.1-0.2-0.1-0.2l0,0l-12-13.3l-7.2-18.8v0v-0.1l0,0
	l0,0c0,0,0-0.1-0.1-0.1v-0.1L482.5,7.4c0,0,0,0-0.1,0l-0.1-0.1l-0.2-0.1h-0.1L444,4.4l-2.4-4c0,0,0-0.1-0.1-0.1l0,0l0,0
	c-0.1-0.1-0.1-0.1-0.2-0.2l0,0C441.2,0.1,441.1,0,441,0l0,0l-83.7,3.1l0,0c-0.1,0-0.1,0-0.2,0H357h-0.1l-0.1,0.1l0,0L292.1,56l0,0
	l0,0l-0.1,0.1l-0.1,0.1l0,0l0,0c0,0,0,0,0,0.1s0,0,0,0.1c0,0,0,0,0,0c0,0,0,0.1,0,0.1c0,0,0,0.1,0,0.1l0,0l3.8,40.7
	c0,0.1,0,0.2,0.1,0.3l0.1,0.1l0.1,0.1l34.5,32.8c0.1,0.1,0.3,0.2,0.5,0.2h25.8l3.7,18c0.1,0.3,0.4,0.6,0.7,0.6h47.6l31.5,24.7
	l23.1,57.6c0.1,0.3,0.4,0.5,0.7,0.5h0.1c0.3,0,0.6-0.3,0.7-0.6l7.1-45l38.8-31.2l0,0l0,0c0,0,0,0,0-0.1c0.1-0.1,0.1-0.1,0.1-0.2l0,0
	l0,0l0,0l0,0l2.4-12.5l10,3.4c0.1,0,0.2,0,0.2,0c0.3,0,0.5-0.1,0.7-0.4l15.9-26.9l0,0l0,0v-0.1v-0.1c0,0,0,0,0-0.1V118H540.4z
	 M534.8,72.1l-5.3,4.8l-22.2,20L524,60.1L534.8,72.1z M504.4,99.6l-5.4,12.1l-8.8,19.5l-7.4-33.6l38.7-35.8L504.4,99.6z M505.4,101
	l32.2,16.9l-46.4,14.5L505.4,101z M411,96.2l23.2,51.4l-74.9-17.9L411,96.2z M360,127.5l50.6-75.6v42.8L360,127.5z M479.4,94.7
	l-58.8-39.9l-7.8-5.3l28-14.8L479.4,94.7z M442.8,35.2l23,8.9l4.3,14.8l9.7,33.8L442.8,35.2z M479.4,96.5l-8.2-0.2L412,94.4V50.8
	L479.4,96.5z M412.4,95.9l67.9,2.1l0,0.1l-44.7,49.3L412.4,95.9z M479.4,101.2l2.1-2.3L489,133l-40.1,11.2l-11.2,3.1L479.4,101.2z
	 M522.9,58.5l-37.5,34.7l31-51.8L522.9,58.5z M510.3,48.6l-28,46.8l-14.8-51.3l47.6-3.6L510.3,48.6z M482.3,9.3l32.5,29.9l-47,3.6
	L482.3,9.3z M480.9,8.7l-14.5,33.2l-11.3-19L445,6L480.9,8.7z M441.5,3.1l23.3,39l-26.4-10.2L441.5,3.1z M440.1,1.5l-3.3,29.8
	L361.2,4.5L440.1,1.5z M439.1,33.8l-22.4,11.9l-5.3,2.8L361,6L439.1,33.8z M357.8,5.2l51.8,43.7l-46.4,8l-16.8,2.9L357.8,5.2z
	 M356.1,5.8L344.8,60l-50.3-4L356.1,5.8z M293.6,58.9l60.4,68.6l-45.8-24.7l-11-5.9L293.6,58.9z M331.2,129.4L301,100.7l17.3,9.3
	l36,19.4L331.2,129.4z M294.4,57.5l47.7,3.7l2.7,0.2l11.4,66.2L294.4,57.5z M356.1,118.5l-9.8-57.2l41.3-7.1l22.1-3.8l-52,77.7
	L356.1,118.5z M361.7,148l-3.5-16.9l19.1,4.6l51.6,12.3H361.7z M411.2,149.5h23.7l4.9,22.2L411.2,149.5z M436.6,150.7l-0.3-1.4
	l38.7-10.8l11.7-3.3l-45.3,37L436.6,150.7z M463.8,228.6l-21.5-53.6l28.2,11.5L463.8,228.6z M471.2,185.1l-27.9-11.4l4.1-1.1
	l59.6-16.3L471.2,185.1z M444.2,171.9l45.7-37.3l7.9,8.2l11,11.4L444.2,171.9z M509.8,153l-17.2-17.8l19.4,6.6L509.8,153z
	 M523.4,144l-10.3-3.5l0,0l-20.8-7l45.6-14.2L523.4,144z M506.4,99.8l20.3-18.3l8.5-7.7l3.5,43L506.4,99.8z"/>
</svg>
