<?xml version="1.0" encoding="UTF-8"?>
<svg width="185px" height="58px" viewBox="0 0 185 58" version="1.1" xmlns="http://www.w3.org/2000/svg" xmlns:xlink="http://www.w3.org/1999/xlink">
    <!-- Generator: Sketch 53.2 (72643) - https://sketchapp.com -->
    <title>Group 7</title>
    <desc>Created with Sketch.</desc>
    <defs>
        <polygon id="path-1" points="0 0.0863176471 184.928589 0.0863176471 184.928589 57.9998863 0 57.9998863"></polygon>
        <polygon id="path-3" points="0.0184707733 0.707484375 184.928702 0.707484375 184.928702 34.8017812 0.0184707733 34.8017812"></polygon>
    </defs>
    <g id="Homepage" stroke="none" stroke-width="1" fill="none" fill-rule="evenodd">
        <g id="homepage" transform="translate(-75.000000, -38.000000)">
            <g id="Group-7" transform="translate(75.000000, 38.000000)">
                <g id="Group-3">
                    <mask id="mask-2" fill="white">
                        <use xlink:href="#path-1"></use>
                    </mask>
                    <g id="Clip-2"></g>
                    <path d="M97.2558737,27.6090235 L87.094682,1.54200392 C86.8351846,1.70121961 86.5156289,1.78082745 86.1450803,1.78082745 C85.7779312,1.78082745 85.461775,1.70121961 85.1988781,1.54200392 L75.4739593,27.6090235 C75.8161785,27.4498078 76.2127902,27.3713373 76.6592617,27.3713373 C77.0819364,27.3713373 77.5159429,27.4498078 77.9624144,27.6090235 L85.9399754,5.5496902 L93.8654102,27.6203961 C94.2382252,27.4270627 94.7288906,27.3326706 95.3408058,27.3326706 C96.0354428,27.3326706 96.6711547,27.423651 97.2558737,27.6090235 L97.2558737,27.6090235 Z M92.282363,54.9543176 L92.282363,45.9029059 L90.7412433,45.9029059 L90.7412433,55.1305922 C90.7412433,56.0438078 91.1854484,56.5032588 92.0783913,56.5032588 C92.501066,56.5032588 92.9373389,56.4020431 93.3940089,56.1973373 L93.3940089,55.7185529 C92.9973972,55.785651 92.7809605,55.8174941 92.7469653,55.8174941 C92.436475,55.8174941 92.282363,55.5309059 92.282363,54.9543176 L92.282363,54.9543176 Z M100.602143,54.291298 C99.9913612,55.3603176 99.2117359,55.8948275 98.261001,55.8948275 C97.6853475,55.8948275 97.232077,55.6844353 96.9023227,55.2716118 C96.5714352,54.8553765 96.4071246,54.3504353 96.4071246,53.755651 C96.4071246,53.0460039 96.7278135,52.417102 97.3725908,51.8746314 C98.0162349,51.4322392 98.6519468,50.9932588 99.2774601,50.5497294 C100.02309,50.0254549 100.466162,49.4659255 100.602143,48.8711412 L100.602143,54.291298 Z M102.14213,54.8792588 L102.14213,49.4272588 C102.14213,47.0287882 101.063346,45.8289843 98.9057783,45.8289843 C98.3176598,45.8289843 97.5017729,46.0894157 96.4569844,46.6136902 L96.859262,48.3400431 C96.9963763,47.8658078 97.2604064,47.4461608 97.6570181,47.0822392 C98.0547629,46.7194549 98.4774377,46.5374941 98.9341077,46.5374941 C99.3193877,46.5374941 99.6491419,46.7035333 99.9177047,47.0344745 C100.186268,47.3642784 100.324515,47.7350235 100.324515,48.1398863 C100.324515,48.6994157 99.8508473,49.2236902 98.9057783,49.7149843 C97.373724,50.5303961 96.4921128,51.0285137 96.2530127,51.2161608 C95.2954787,51.9587882 94.815012,52.9186314 94.815012,54.0888667 C94.815012,54.9020039 95.0291823,55.5456902 95.4586561,56.0199255 C95.8869967,56.495298 96.4989119,56.7329843 97.2887358,56.7329843 C98.6542132,56.7329843 99.7488615,56.1973373 100.577213,55.1340039 C100.658802,56.0290235 101.123404,56.4793765 101.964221,56.4793765 C102.369898,56.4793765 102.79144,56.3838471 103.229979,56.1973373 L103.229979,55.7185529 C102.976147,55.7674549 102.79144,55.7936118 102.672456,55.7936118 C102.320038,55.7936118 102.14213,55.4899647 102.14213,54.8792588 L102.14213,54.8792588 Z M84.4430495,55.5661608 C84.0226411,55.8880039 83.5682374,56.0460824 83.0798385,56.0460824 C82.1540334,56.0460824 81.4367329,55.5661608 80.9336026,54.6063176 C80.5279255,53.8295725 80.3273533,52.9368275 80.3273533,51.9246706 C80.3273533,49.5478078 80.8984741,47.9374549 82.0441153,47.094749 C82.4463929,46.791102 82.8769999,46.6375725 83.3325368,46.6375725 C84.2583418,46.6375725 84.9745092,47.1618471 85.4787726,48.2058471 C85.8844497,49.0337686 86.0861551,49.9697294 86.0861551,51.0160039 C86.0861551,53.2234157 85.538831,54.7393765 84.4430495,55.5661608 L84.4430495,55.5661608 Z M87.8550433,54.9565922 L87.8550433,39.8697686 C87.602345,39.8697686 87.3247168,39.902749 87.0221587,39.9709843 C86.7501964,39.902749 86.490699,39.8697686 86.2368676,39.8697686 L86.2368676,48.0841608 C85.6317514,46.5647882 84.5665657,45.8039647 83.0401773,45.8039647 C81.7302255,45.8039647 80.6707057,46.340749 79.8672837,47.4222784 C79.1443173,48.4162392 78.7839672,49.5910235 78.7839672,50.9375333 C78.7839672,54.8007882 80.2910916,56.7329843 83.3076069,56.7329843 C83.9965781,56.7329843 84.5778975,56.5623961 85.050432,56.2303176 C85.4028498,55.9994549 85.8232582,55.5479647 86.3139235,54.8792588 C86.4306407,55.9630627 86.9009089,56.5032588 87.7281275,56.5032588 C88.0816785,56.5032588 88.4941547,56.4020431 88.9666892,56.1973373 L88.9666892,55.7185529 C88.6131382,55.785651 88.4023674,55.8174941 88.3343768,55.8174941 C88.0159543,55.8174941 87.8550433,55.5320431 87.8550433,54.9565922 L87.8550433,54.9565922 Z M74.5356893,47.0447098 L74.5356893,45.8289843 C74.3067877,45.9472588 74.0608885,46.0052588 73.8025243,46.0052588 C73.5577582,46.0052588 73.2869291,45.9472588 72.9945696,45.8289843 L72.9945696,54.9565922 C72.9945696,55.5320431 72.8404576,55.8174941 72.5288342,55.8174941 C72.4925725,55.8174941 72.2795354,55.785651 71.8817905,55.7185529 L71.8817905,56.1973373 C72.3361942,56.3838471 72.7577358,56.4793765 73.1475484,56.4793765 C73.5509592,56.4793765 73.8829798,56.3554157 74.1447435,56.1109059 C74.4065072,55.8629843 74.5356893,55.5343176 74.5356893,55.1283176 L74.5356893,49.3658471 C74.5356893,48.7039647 74.752126,48.0796118 75.1838662,47.4950627 C75.6167395,46.907102 76.1549982,46.6136902 76.7975092,46.6136902 C77.4592841,46.6136902 78.0032087,47.036749 78.4270167,47.8817294 L78.4270167,46.3930627 C77.8638281,46.0166314 77.2995063,45.8289843 76.738584,45.8289843 C75.832043,45.8289843 75.098878,46.2338471 74.5356893,47.0447098 L74.5356893,47.0447098 Z M92.4829352,42.1260824 C92.4829352,41.3811804 92.1565804,41.0104353 91.4970718,41.0104353 C90.8250983,41.0104353 90.4874118,41.3811804 90.4874118,42.1260824 C90.4874118,42.8698471 90.8250983,43.2417294 91.4970718,43.2417294 C92.1565804,43.2417294 92.4829352,42.8698471 92.4829352,42.1260824 L92.4829352,42.1260824 Z M114.033682,55.5661608 C113.614406,55.8880039 113.158869,56.0460824 112.670471,56.0460824 C111.744666,56.0460824 111.027365,55.5661608 110.521968,54.6063176 C110.119691,53.8295725 109.916852,52.9368275 109.916852,51.9246706 C109.916852,49.5478078 110.487973,47.9374549 111.633614,47.094749 C112.039291,46.791102 112.467632,46.6375725 112.923169,46.6375725 C113.848974,46.6375725 114.565141,47.1618471 115.069405,48.2058471 C115.476215,49.0337686 115.676787,49.9697294 115.676787,51.0160039 C115.676787,53.2234157 115.129463,54.7393765 114.033682,55.5661608 L114.033682,55.5661608 Z M117.445675,54.9565922 L117.445675,39.8697686 C117.19411,39.8697686 116.916482,39.902749 116.611658,39.9709843 C116.340828,39.902749 116.082464,39.8697686 115.8275,39.8697686 L115.8275,48.0841608 C115.223517,46.5647882 114.157198,45.8039647 112.629676,45.8039647 C111.319724,45.8039647 110.263604,46.340749 109.457916,47.4222784 C108.736082,48.4162392 108.375732,49.5910235 108.375732,50.9375333 C108.375732,54.8007882 109.882857,56.7329843 112.899372,56.7329843 C113.588343,56.7329843 114.169663,56.5623961 114.642197,56.2303176 C114.993482,55.9994549 115.416157,55.5479647 115.904556,54.8792588 C116.022406,55.9630627 116.49494,56.5032588 117.319893,56.5032588 C117.673444,56.5032588 118.087053,56.4020431 118.558454,56.1973373 L118.558454,55.7185529 C118.202637,55.785651 117.994133,55.8174941 117.926142,55.8174941 C117.605453,55.8174941 117.445675,55.5320431 117.445675,54.9565922 L117.445675,54.9565922 Z M171.659095,55.5900431 C171.187693,55.910749 170.700428,56.071102 170.193898,56.071102 C169.16724,56.071102 168.391014,55.5320431 167.86862,54.4505137 C167.448212,53.6214549 167.239707,52.6422784 167.239707,51.507298 C167.239707,49.3112588 167.819893,47.781651 168.982532,46.9184745 C169.43467,46.5977686 169.91627,46.4362784 170.420533,46.4362784 C171.465322,46.4362784 172.258545,47.0128667 172.796804,48.1626314 C173.235343,49.057651 173.452913,50.0891412 173.452913,51.2548275 C173.452913,53.300749 172.855729,54.7462 171.659095,55.5900431 L171.659095,55.5900431 Z M170.445463,45.8039647 C168.948537,45.8039647 167.726973,46.3521216 166.783037,47.4518471 C165.905959,48.4992588 165.46742,49.7911804 165.46742,51.3310235 L165.495749,51.5334549 C165.495749,52.261298 165.595468,52.9288667 165.797174,53.537298 C166.118996,54.5176118 166.674252,55.3034549 167.465209,55.8982392 C168.256166,56.4862 169.16724,56.7830235 170.193898,56.7830235 C171.69309,56.7830235 172.914654,56.2269059 173.85859,55.1089843 C174.733402,54.0604353 175.173074,52.7605529 175.173074,51.2025137 C175.173074,49.6990627 174.76853,48.4412588 173.958309,47.4256902 C173.082364,46.3430235 171.911793,45.8039647 170.445463,45.8039647 L170.445463,45.8039647 Z M160.668418,55.5661608 C160.250276,55.8880039 159.794739,56.0460824 159.30974,56.0460824 C158.387334,56.0460824 157.673433,55.5661608 157.170303,54.6063176 C156.770292,53.8295725 156.567453,52.9368275 156.567453,51.9246706 C156.567453,49.5478078 157.138574,47.9374549 158.280816,47.094749 C158.680827,46.791102 159.108034,46.6375725 159.560172,46.6375725 C160.485977,46.6375725 161.197611,47.1618471 161.700742,48.2058471 C162.103019,49.0337686 162.303591,49.9697294 162.303591,51.0160039 C162.303591,53.2234157 161.759667,54.741651 160.668418,55.5661608 L160.668418,55.5661608 Z M159.777741,45.8039647 C158.244554,45.8039647 157.174836,46.5647882 156.567453,48.0841608 L156.567453,39.8697686 C156.330619,39.8697686 156.071122,39.902749 155.783295,39.9709843 C155.48187,39.902749 155.212174,39.8697686 154.97534,39.8697686 L154.97534,54.9565922 C154.97534,55.5320431 154.816696,55.8174941 154.496007,55.8174941 C154.44728,55.8174941 154.236509,55.785651 153.865961,55.7185529 L153.865961,56.1973373 C154.335096,56.4020431 154.749838,56.5032588 155.103389,56.5032588 C155.926075,56.5032588 156.407675,55.9630627 156.542523,54.8792588 C157.032055,55.5479647 157.443398,55.9994549 157.779952,56.2303176 C158.270617,56.5623961 158.84967,56.7329843 159.525043,56.7329843 C160.956245,56.7329843 162.103019,56.1086314 162.958567,54.8599255 C163.703064,53.7476902 164.073613,52.4387098 164.073613,50.9375333 C164.073613,49.5910235 163.703064,48.4162392 162.958567,47.4222784 C162.151746,46.340749 161.091093,45.8039647 159.777741,45.8039647 L159.777741,45.8039647 Z M67.520195,55.5900431 C67.0476605,55.910749 66.5615279,56.071102 66.0538649,56.071102 C65.0272072,56.071102 64.2521146,55.5320431 63.7308536,54.4505137 C63.3081788,53.6214549 63.097408,52.6422784 63.097408,51.507298 C63.097408,49.3112588 63.6798606,47.781651 64.8424995,46.9184745 C65.2969032,46.5977686 65.7773699,46.4362784 66.2816334,46.4362784 C67.3264219,46.4362784 68.1185121,47.0128667 68.657904,48.1626314 C69.09531,49.057651 69.3151462,50.0891412 69.3151462,51.2548275 C69.3151462,53.300749 68.715696,54.7462 67.520195,55.5900431 L67.520195,55.5900431 Z M66.3065632,45.8039647 C64.8096374,45.8039647 63.5880734,46.3521216 62.6430043,47.4495725 C61.7670591,48.4992588 61.3285199,49.7911804 61.3285199,51.3310235 L61.3545829,51.5334549 C61.3545829,52.261298 61.4543024,52.9288667 61.6582742,53.537298 C61.978963,54.5153373 62.5342194,55.3034549 63.3251765,55.8948275 C64.1172667,56.4862 65.0272072,56.7830235 66.0538649,56.7830235 C67.5530571,56.7830235 68.7746212,56.2269059 69.7174238,55.1089843 C70.5922359,54.0604353 71.0319083,52.7605529 71.0319083,51.2025137 C71.0319083,49.6990627 70.6296307,48.4389843 69.8205429,47.4256902 C68.9423313,46.3430235 67.7728933,45.8039647 66.3065632,45.8039647 L66.3065632,45.8039647 Z M182.29962,54.291298 C181.687705,55.3603176 180.908079,55.8982392 179.959611,55.8982392 C179.385091,55.8982392 178.930687,55.6867098 178.600933,55.2716118 C178.270045,54.8553765 178.105735,54.3504353 178.105735,53.7579255 C178.105735,53.0460039 178.427557,52.417102 179.071201,51.8746314 C179.717111,51.4333765 180.350557,50.9932588 180.977203,50.5497294 C181.7217,50.0254549 182.163639,49.4659255 182.29962,48.8722784 L182.29962,54.291298 Z M184.372199,55.7936118 C184.016382,55.7936118 183.84074,55.4899647 183.84074,54.8792588 L183.84074,49.4272588 C183.84074,47.0287882 182.763089,45.8289843 180.605521,45.8289843 C180.017403,45.8289843 179.19925,46.0894157 178.155594,46.6136902 L178.560138,48.3400431 C178.694986,47.8658078 178.960149,47.4461608 179.355628,47.0845137 C179.751106,46.7194549 180.177181,46.5374941 180.629318,46.5374941 C181.017998,46.5374941 181.346619,46.7035333 181.616315,47.0344745 C181.886011,47.3642784 182.020859,47.7350235 182.020859,48.1398863 C182.020859,48.6994157 181.549457,49.2236902 180.605521,49.7161216 C179.073467,50.5303961 178.18959,51.0285137 177.952756,51.2161608 C176.992955,51.9610627 176.511356,52.9186314 176.511356,54.0888667 C176.511356,54.9020039 176.727792,55.5456902 177.158399,56.0210627 C177.589006,56.495298 178.197522,56.7329843 178.989612,56.7329843 C180.352823,56.7329843 181.448605,56.1973373 182.27469,55.1340039 C182.359678,56.031298 182.822014,56.4793765 183.662831,56.4793765 C184.067375,56.4793765 184.488916,56.3838471 184.928589,56.1973373 L184.928589,55.7185529 C184.675891,55.7674549 184.488916,55.7936118 184.372199,55.7936118 L184.372199,55.7936118 Z M120.974386,50.8238078 C120.974386,49.7400039 121.21122,48.7790235 121.680355,47.9329059 C122.253742,46.9184745 123.036767,46.4089843 124.031696,46.4089843 C124.534826,46.4089843 124.941636,46.6239255 125.244194,47.0447098 C125.496893,47.4347882 125.623809,47.8817294 125.623809,48.3878078 C125.623809,48.9962392 125.343914,49.4556902 124.789791,49.7604745 C124.182408,50.0129451 123.568227,50.2654157 122.942713,50.5178863 C122.155156,50.9250235 121.561372,51.5163961 121.177225,52.2942784 C121.041244,51.8530235 120.974386,51.3662784 120.974386,50.8238078 L120.974386,50.8238078 Z M121.733614,54.1969059 C121.561372,53.8580039 121.477517,53.5623176 121.477517,53.3064353 C121.477517,52.6991412 121.959116,52.1680431 122.92005,51.7097294 C123.82999,51.3389843 124.730866,50.9580039 125.623809,50.5713373 C126.584742,50.0629843 127.061809,49.4272588 127.061809,48.6675725 C127.061809,47.7532196 126.754718,47.0447098 126.139404,46.5374941 C125.526355,46.0302784 124.755795,45.7755333 123.82999,45.7755333 C122.466779,45.7755333 121.342669,46.3771412 120.467856,47.5758078 C119.69503,48.6584745 119.306351,49.9105922 119.306351,51.3310235 C119.306351,52.7685137 119.743757,54.0183569 120.619702,55.085102 C121.54664,56.2166706 122.708146,56.7830235 124.105352,56.7830235 C125.284989,56.7830235 126.43063,56.3247098 127.543409,55.4126314 L127.592136,54.273102 C126.599473,55.2693373 125.496893,55.7674549 124.284394,55.7674549 C123.120622,55.7674549 122.271873,55.2443176 121.733614,54.1969059 L121.733614,54.1969059 Z M135.824661,55.2602392 L135.824661,41.1616902 C135.824661,40.7238471 135.677348,40.366749 135.383856,40.0972196 C135.08923,39.8254157 134.722081,39.6900824 134.283542,39.6900824 C133.863133,39.6900824 133.399664,39.8015333 132.895401,40.0210235 L132.895401,40.5282392 C133.331674,40.4770627 133.569641,40.4509059 133.603636,40.4509059 C133.939056,40.4509059 134.106766,40.763651 134.106766,41.3891412 L134.106766,56.5032588 L141.636722,56.5032588 C141.569865,56.2826314 141.53587,56.071102 141.53587,55.8686706 C141.53587,55.6662392 141.569865,55.4638078 141.636722,55.2602392 L135.824661,55.2602392 Z M144.799417,54.9543176 L144.799417,45.9029059 L143.259431,45.9029059 L143.259431,55.1305922 C143.259431,56.0438078 143.700236,56.5032588 144.594313,56.5032588 C145.014721,56.5032588 145.45326,56.4020431 145.911063,56.1973373 L145.911063,55.7185529 C145.514452,55.785651 145.298015,55.8174941 145.262887,55.8174941 C144.952396,55.8174941 144.799417,55.5309059 144.799417,54.9543176 L144.799417,54.9543176 Z M151.678931,50.8363176 C151.005824,50.4178078 150.330451,49.9936118 149.658477,49.575102 C148.933244,49.0826706 148.571761,48.4685529 148.571761,47.7270627 C148.571761,46.9162 149.042029,46.5136118 149.984832,46.5136118 C150.659072,46.5136118 151.139539,46.8172588 151.426232,47.4256902 L151.906699,46.2838863 C151.317447,45.9620431 150.693067,45.8039647 150.036958,45.8039647 C149.295861,45.8039647 148.648817,46.0393765 148.090161,46.5113373 C147.532639,46.9855725 147.257277,47.5826314 147.257277,48.3082 C147.257277,49.3851804 147.621026,50.2449451 148.343993,50.8852196 C149.0171,51.3082784 149.689073,51.7279255 150.365579,52.1532588 C151.089679,52.6422784 151.452295,53.2382 151.452295,53.9489843 C151.452295,54.4869059 151.287985,54.9668275 150.960497,55.388749 C150.630743,55.8106706 150.186537,56.0210627 149.633547,56.0210627 C149.295861,56.0210627 148.912847,55.8811804 148.483374,55.6002784 C148.0539,55.3182392 147.753608,55.0180039 147.585898,54.7029843 L147.105431,56.2814941 C147.746809,56.5794549 148.571761,56.7329843 149.583688,56.7329843 C150.491362,56.7329843 151.25059,56.3940824 151.857972,55.7196902 C152.460822,55.045298 152.764513,54.2537686 152.764513,53.3405529 C152.764513,52.2817686 152.40303,51.4458863 151.678931,50.8363176 L151.678931,50.8363176 Z M145.001123,42.1260824 C145.001123,41.3811804 144.672502,41.0104353 144.015259,41.0104353 C143.338753,41.0104353 143.001067,41.3811804 143.001067,42.1260824 C143.001067,42.8698471 143.338753,43.2417294 144.015259,43.2417294 C144.672502,43.2417294 145.001123,42.8698471 145.001123,42.1260824 L145.001123,42.1260824 Z M14.5702672,39.9186706 C14.4172884,39.9186706 14.273375,39.893651 14.1396602,39.8402 L8.44658264,53.8739255 L2.91101653,39.8504353 C2.79429938,39.8470235 2.66058458,39.8436118 2.51100531,39.8436118 L2.10872773,39.8436118 L-0.000113317627,56.5032588 C0.218589703,56.4020431 0.480353423,56.3531412 0.782911488,56.3531412 C1.1024672,56.3531412 1.39822621,56.4020431 1.66792216,56.5032588 L2.8554909,43.1405137 L8.46471346,57.9998863 L14.4762136,42.8857686 L15.6660487,56.5032588 C15.8824854,56.3838471 16.1442491,56.3247098 16.4479403,56.3247098 C16.7323676,56.3247098 17.063255,56.3838471 17.4349368,56.5032588 L15.0269373,39.8436118 C14.8739585,39.893651 14.7221128,39.9186706 14.5702672,39.9186706 L14.5702672,39.9186706 Z M28.3111627,50.8363176 C27.6369229,50.4178078 26.9615498,49.9936118 26.2907094,49.575102 C25.5666098,49.0826706 25.2039934,48.4685529 25.2039934,47.7270627 C25.2039934,46.9162 25.6742615,46.5136118 26.6193306,46.5136118 C27.2924373,46.5136118 27.772904,46.8172588 28.0584644,47.4256902 L28.537798,46.2838863 C27.9485463,45.9620431 27.3252994,45.8039647 26.6680571,45.8039647 C25.9269599,45.8039647 25.278783,46.0393765 24.7235266,46.5113373 C24.1671371,46.9855725 23.8883757,47.5826314 23.8883757,48.3082 C23.8883757,49.3851804 24.2509921,50.2449451 24.9739586,50.8852196 C25.6493317,51.3082784 26.3213052,51.7279255 26.9966783,52.1532588 C27.7207779,52.6422784 28.0845275,53.2382 28.0845275,53.9489843 C28.0845275,54.4869059 27.9202169,54.9668275 27.5904626,55.388749 C27.2629747,55.8106706 26.8210359,56.0210627 26.2657796,56.0210627 C25.9269599,56.0210627 25.5450794,55.8811804 25.1144725,55.6002784 C24.6838655,55.3182392 24.3858401,55.0180039 24.21813,54.7029843 L23.7387965,56.2814941 C24.3779079,56.5794549 25.2039934,56.7329843 26.2147866,56.7329843 C27.123594,56.7329843 27.8816889,56.3940824 28.4879382,55.7196902 C29.0953207,55.045298 29.3967456,54.2537686 29.3967456,53.3405529 C29.3967456,52.2817686 29.0352624,51.4458863 28.3111627,50.8363176 L28.3111627,50.8363176 Z M21.3024675,54.9543176 L21.3024675,45.9029059 L19.7590814,45.9029059 L19.7590814,55.1305922 C19.7590814,56.0438078 20.2044197,56.5032588 21.0996289,56.5032588 C21.5211705,56.5032588 21.9585765,56.4020431 22.411847,56.1973373 L22.411847,55.7185529 C22.0163685,55.785651 21.801065,55.8174941 21.7670697,55.8174941 C21.4577126,55.8174941 21.3024675,55.5309059 21.3024675,54.9543176 L21.3024675,54.9543176 Z M32.472186,50.8238078 C32.472186,49.7400039 32.7090199,48.7790235 33.1804212,47.9329059 C33.7526752,46.9184745 34.5357,46.4089843 35.5294956,46.4089843 C36.0360254,46.4089843 36.4394362,46.6239255 36.7431274,47.0447098 C36.9946925,47.4347882 37.1216083,47.8817294 37.1216083,48.3878078 C37.1216083,48.9962392 36.8439801,49.4556902 36.2875905,49.7604745 C35.6802081,50.0129451 35.0648933,50.2654157 34.4439127,50.5178863 C33.6518225,50.9250235 33.0625709,51.5163961 32.6750246,52.2942784 C32.5401766,51.8530235 32.472186,51.3662784 32.472186,50.8238078 L32.472186,50.8238078 Z M33.2302809,54.1969059 C33.0625709,53.8580039 32.9775826,53.5623176 32.9775826,53.3064353 C32.9775826,52.6991412 33.4580494,52.1680431 34.4189829,51.7097294 C35.3289234,51.3389843 36.2275322,50.9580039 37.1216083,50.5713373 C38.0814086,50.0629843 38.5618753,49.4272588 38.5618753,48.6675725 C38.5618753,47.7532196 38.2536514,47.0447098 37.640603,46.5374941 C37.0252883,46.0302784 36.2535952,45.7755333 35.3289234,45.7755333 C33.9623128,45.7755333 32.8427347,46.3771412 31.9667894,47.5758078 C31.1916968,48.6584745 30.8052837,49.9105922 30.8052837,51.3310235 C30.8052837,52.7685137 31.2415566,54.0183569 32.118635,55.085102 C33.04444,56.2166706 34.2070789,56.7830235 35.6065516,56.7830235 C36.7861881,56.7830235 37.929563,56.3247098 39.0423421,55.4126314 L39.093335,54.273102 C38.0984062,55.2693373 36.9946925,55.7674549 35.7833271,55.7674549 C34.6206882,55.7674549 33.7685397,55.2443176 33.2302809,54.1969059 L33.2302809,54.1969059 Z M20.5160431,43.2417294 C21.1755517,43.2417294 21.5019065,42.8698471 21.5019065,42.1260824 C21.5019065,41.3811804 21.1755517,41.0104353 20.5160431,41.0104353 C19.8452028,41.0104353 19.5075163,41.3811804 19.5075163,42.1260824 C19.5075163,42.8698471 19.8452028,43.2417294 20.5160431,43.2417294 L20.5160431,43.2417294 Z M17.0258602,27.6090235 L25.002288,5.5496902 L32.9265897,27.6203961 C33.2982715,27.4270627 33.7923364,27.3326706 34.4031184,27.3326706 C35.0943559,27.3326706 35.7346005,27.423651 36.3193195,27.6090235 L26.1581278,1.54200392 C25.8940977,1.70121961 25.5790747,1.78082745 25.2085261,1.78082745 C24.8379775,1.78082745 24.5229544,1.70121961 24.2589244,1.54200392 L14.5340056,27.6090235 C14.877358,27.4498078 15.2728365,27.3713373 15.719308,27.3713373 C16.1419827,27.3713373 16.5793888,27.4498078 17.0258602,27.6090235 L17.0258602,27.6090235 Z M6.25162019,26.0737294 C5.33034788,26.0737294 4.41927415,25.7109451 3.52519807,24.9819647 C2.62772246,24.2552588 2.04980256,23.4409843 1.78690567,22.5414157 L0.44182543,25.2003176 C1.07300461,25.969102 1.92288682,26.6366706 2.99033887,27.205298 C4.05779092,27.7739255 5.06745098,28.057102 6.01591953,28.057102 C8.28227208,28.057102 10.2064054,27.1723176 11.7871863,25.3993373 C13.3691004,23.6274941 14.1611906,21.5906706 14.1611906,19.2888667 C14.1611906,17.3054941 13.6591935,15.6519255 12.6574657,14.329298 C11.9730272,13.4035725 10.6562764,12.2799647 8.70494683,10.9573373 C5.56604854,8.78859216 3.99999893,6.81772941 3.99999893,5.04588627 C3.99999893,4.17361176 4.25836312,3.44463137 4.77169198,2.86349412 C5.28502083,2.28121961 5.96266024,1.99008235 6.80687657,1.99008235 C7.75647828,1.99008235 8.50777415,2.18910196 9.06076418,2.58600392 C9.53329868,2.9294549 10.0352958,3.55153333 10.5622227,4.44996471 L11.5118245,1.71259216 C10.4829004,0.628788235 8.98257501,0.0863176471 7.00404924,0.0863176471 C5.3677427,0.0863176471 4.12351515,0.450239216 3.26796706,1.1769451 C2.41241897,1.90592549 1.83903178,3.07616078 1.54780547,4.68878824 C1.49567937,5.0049451 1.47188266,5.33702353 1.47188266,5.68047451 C1.47188266,8.21996471 3.34162352,10.9175333 7.08450475,13.7731804 C8.53270403,14.8592588 9.54802998,15.7849843 10.1282162,16.5514941 C10.9701662,17.6625922 11.392841,18.9329059 11.392841,20.3601608 C11.392841,21.8420039 10.9191733,23.1509843 9.96957155,24.2882392 C8.94064749,25.4778078 7.70435218,26.0737294 6.25162019,26.0737294 L6.25162019,26.0737294 Z M40.8214288,6.40376863 L58.179423,29.4786706 L58.179423,1.55451373 C57.941456,1.73988627 57.6377647,1.83086667 57.2672161,1.83086667 C56.9249969,1.83086667 56.5816444,1.73988627 56.2394252,1.55451373 L56.2394252,22.1047098 L38.9233586,0.164788235 L38.9233586,27.7796118 C39.2145849,27.4896118 39.530741,27.3429059 39.8729603,27.3429059 C40.2163127,27.3429059 40.5313357,27.4896118 40.8214288,27.7796118 L40.8214288,6.40376863 Z M66.2578367,41.5676902 L65.4487488,44.3562392 L66.2578367,44.3562392 L68.5060584,41.5676902 C68.2182316,41.7030235 67.8646806,41.7701216 67.443139,41.7701216 C66.9910017,41.7701216 66.5932568,41.7030235 66.2578367,41.5676902 L66.2578367,41.5676902 Z M42.9937277,47.0447098 L42.9937277,45.8289843 C42.7682257,45.9472588 42.5234596,46.0052588 42.262829,46.0052588 C42.018063,46.0052588 41.748367,45.9472588 41.4560075,45.8289843 L41.4560075,54.9565922 C41.4560075,55.5320431 41.3007624,55.8174941 40.9902721,55.8174941 C40.9540104,55.8174941 40.7398401,55.785651 40.3432284,55.7185529 L40.3432284,56.1973373 C40.7976321,56.3838471 41.2180405,56.4793765 41.6078531,56.4793765 C42.0112639,56.4793765 42.3444177,56.3554157 42.6050483,56.1109059 C42.866812,55.8629843 42.9937277,55.5343176 42.9937277,55.1283176 L42.9937277,49.3658471 C42.9937277,48.7039647 43.2124308,48.0796118 43.6441709,47.4950627 C44.0781774,46.907102 44.6164362,46.6136902 45.2600803,46.6136902 C45.9195889,46.6136902 46.4635135,47.036749 46.8884546,47.8817294 L46.8884546,46.3930627 C46.3229996,46.0166314 45.7609442,45.8289843 45.1988888,45.8289843 C44.2934809,45.8289843 43.5591827,46.2338471 42.9937277,47.0447098 L42.9937277,47.0447098 Z M57.8360706,55.9960431 C56.6417028,55.9960431 55.7079655,55.4729059 55.0325925,54.4254941 C54.4433408,53.5111412 54.148715,52.421651 54.148715,51.1524745 C54.148715,49.9708667 54.3322895,49.0064745 54.7039714,48.2615725 C55.2116343,47.2676118 55.9833274,46.7638078 57.0292491,46.7638078 C57.5335125,46.7638078 58.0615727,46.8980039 58.6088968,47.1595725 C59.1550878,47.4222784 59.5222369,47.7532196 59.709211,48.1626314 L60.1624815,46.6921608 C59.5732298,46.3350627 59.1766181,46.1144353 58.9749127,46.0302784 C58.6202286,45.8949451 58.1748903,45.8289843 57.6343652,45.8289843 C56.0535843,45.8289843 54.7821605,46.3350627 53.821227,47.3494941 C52.8580272,48.3639255 52.3820932,49.6649451 52.3820932,51.2548275 C52.3820932,52.7912588 52.8262983,54.0865922 53.718108,55.1340039 C54.6620438,56.2337294 55.884741,56.7830235 57.3816669,56.7830235 C58.5284413,56.7830235 59.5992929,56.4020431 60.5919553,55.6400824 L60.288264,54.6006314 C59.3454614,55.5320431 58.5284413,55.9960431 57.8360706,55.9960431 L57.8360706,55.9960431 Z M67.53266,3.49921961 L67.53266,25.2799255 C67.53266,25.969102 67.7558957,26.5229451 68.2046335,26.9460039 C68.6533713,27.3690627 69.2199594,27.5817294 69.9055311,27.5817294 C70.5888364,27.5817294 71.312936,27.4225137 72.07783,27.1052196 L72.07783,26.2716118 C71.3933915,26.3512196 71.0387074,26.3910235 71.0115111,26.3910235 C70.4573879,26.3910235 70.1797597,25.9031412 70.1797597,24.925102 L70.1797597,3.49921961 L77.1782564,3.49921961 C77.072871,3.15463137 77.0218781,2.82482745 77.0218781,2.50525882 C77.0218781,2.18910196 77.072871,1.87067059 77.1782564,1.55451373 L60.692808,1.55451373 C60.7981934,1.87067059 60.8503195,2.18910196 60.8503195,2.50525882 C60.8503195,2.82482745 60.7981934,3.15463137 60.692808,3.49921961 L67.53266,3.49921961 Z M50.1418037,54.9543176 L50.1418037,45.9029059 L48.5995508,45.9029059 L48.5995508,55.1305922 C48.5995508,56.0438078 49.044889,56.5032588 49.9389651,56.5032588 C50.3605067,56.5032588 50.7990459,56.4020431 51.2523164,56.1973373 L51.2523164,55.7185529 C50.8579711,55.785651 50.6404012,55.8174941 50.6075391,55.8174941 C50.2959156,55.8174941 50.1418037,55.5309059 50.1418037,54.9543176 L50.1418037,54.9543176 Z M50.343509,42.1260824 C50.343509,41.3811804 50.0160211,41.0104353 49.3576457,41.0104353 C48.684539,41.0104353 48.3468525,41.3811804 48.3468525,42.1260824 C48.3468525,42.8698471 48.684539,43.2417294 49.3576457,43.2417294 C50.0160211,43.2417294 50.343509,42.8698471 50.343509,42.1260824 L50.343509,42.1260824 Z" id="Fill-1" fill="#FFFFFF" mask="url(#mask-2)"></path>
                </g>
                <g id="Group-6">
                    <mask id="mask-4" fill="white">
                        <use xlink:href="#path-3"></use>
                    </mask>
                    <g id="Clip-5"></g>
                    <path d="M115.886878,28.2129271 C118.524912,28.2129271 121.022433,27.1289688 123.374907,24.9588125 L123.255923,22.1705312 C122.523892,23.3843854 121.544827,24.4302708 120.315331,25.3081875 C118.958919,26.2644896 117.639902,26.7426406 116.358279,26.7426406 C113.404089,26.7426406 111.076545,25.450401 109.38018,22.8681615 C107.916116,20.6207396 107.184084,17.9601146 107.184084,14.8862865 C107.184084,11.7351927 107.939913,9.05105208 109.458369,6.82826562 C111.184197,4.29865625 113.575198,3.03217187 116.631375,3.03217187 C118.250684,3.03217187 119.439386,3.47113021 120.198614,4.34792708 L121.414512,2.4106875 C120.002574,1.84519271 118.446723,1.55964583 116.750358,1.55964583 C112.853365,1.55964583 109.724665,2.84516667 107.36086,5.41508854 C104.995921,7.98389062 103.811752,11.2055312 103.811752,15.0811302 C103.811752,18.7753229 104.882603,21.8469115 107.026573,24.300375 C109.272528,26.9094896 112.227852,28.2129271 115.886878,28.2129271 L115.886878,28.2129271 Z M135.056821,6.14967187 L140.06546,19.8458437 L130.047049,19.8458437 L135.056821,6.14967187 Z M127.10079,27.7470937 L129.409071,21.2030312 L140.626382,21.2030312 L142.939195,27.7482135 C143.278015,27.5421719 143.764148,27.439151 144.390794,27.439151 C145.071833,27.439151 145.69848,27.5421719 146.274133,27.7482135 L136.120874,2.14081771 C135.752591,2.21808333 135.455699,2.25615625 135.218865,2.25615625 C134.957102,2.25615625 134.670408,2.21808333 134.355385,2.14081771 L124.673527,27.7482135 C125.011213,27.5936823 125.391961,27.5175365 125.807836,27.5175365 C126.250908,27.5175365 126.681515,27.5936823 127.10079,27.7470937 L127.10079,27.7470937 Z M0.0184707733,34.8017812 L184.929042,34.8017812 L184.929042,34.2183698 L0.0184707733,34.2183698 L0.0184707733,34.8017812 Z M153.283961,26.0830833 C152.368355,26.0830833 151.46748,25.7281094 150.576803,25.0181615 C149.691793,24.3070938 149.113873,23.5120417 148.853242,22.634125 L147.520627,25.2320417 C148.148407,25.9800625 148.99149,26.632901 150.049876,27.1871979 C151.108263,27.7426146 152.106591,28.0203229 153.048261,28.0203229 C155.297616,28.0203229 157.204751,27.1558438 158.771934,25.4246458 C160.341383,23.6945677 161.125541,21.7046979 161.125541,19.4583958 C161.125541,17.5211563 160.626944,15.9086563 159.634281,14.6164167 C158.954376,13.711625 157.647823,12.6131094 155.713491,11.3231094 C152.602923,9.20558333 151.047072,7.28066146 151.047072,5.55058333 C151.047072,4.69842187 151.304303,3.98735417 151.811966,3.41961979 C152.324161,2.85076563 152.996135,2.56745833 153.833552,2.56745833 C154.771822,2.56745833 155.518585,2.76118229 156.067042,3.14751042 C156.537311,3.48456771 157.033642,4.090375 157.558302,4.96941146 L158.498839,2.29534896 C157.480113,1.23714583 155.989986,0.707484375 154.029591,0.707484375 C152.408016,0.707484375 151.173987,1.06357812 150.326371,1.77352604 C149.474223,2.48235417 148.904235,3.62454167 148.619808,5.20120833 C148.564282,5.51139062 148.540486,5.83501042 148.540486,6.16982812 C148.540486,8.64904687 150.395495,11.2839167 154.106647,14.0733177 C155.544648,15.1326406 156.552042,16.0351927 157.126562,16.7843333 C157.96058,17.8694115 158.380988,19.1101406 158.380988,20.5042813 C158.380988,21.9510521 157.909587,23.2287344 156.969051,24.3406875 C155.950325,25.5019115 154.720829,26.0830833 153.283961,26.0830833 L153.283961,26.0830833 Z M172.023298,6.14967187 L177.031937,19.8458437 L167.012392,19.8458437 L172.023298,6.14967187 Z M164.066134,27.7470937 L166.373281,21.2030312 L177.591726,21.2030312 L179.904539,27.7482135 C180.244491,27.5421719 180.729491,27.439151 181.356137,27.439151 C182.036043,27.439151 182.66269,27.5421719 183.239476,27.7482135 L173.08735,2.14081771 C172.719068,2.21808333 172.419909,2.25615625 172.184209,2.25615625 C171.922445,2.25615625 171.635751,2.21808333 171.320728,2.14081771 L161.640003,27.7482135 C161.976557,27.5936823 162.357304,27.5175365 162.77318,27.5175365 C163.216252,27.5175365 163.645725,27.5936823 164.066134,27.7470937 L164.066134,27.7470937 Z" id="Fill-4" fill="#FFFFFF" mask="url(#mask-4)"></path>
                </g>
            </g>
        </g>
    </g>
</svg>